<mxfile host="Electron" modified="2024-02-11T22:37:25.013Z" agent="Mozilla/5.0 (Windows NT 10.0; Win64; x64) AppleWebKit/537.36 (KHTML, like Gecko) draw.io/22.0.3 Chrome/114.0.5735.289 Electron/25.8.4 Safari/537.36" etag="oVRp3eI_-QkVjIOfvp03" version="22.0.3" type="device">
  <diagram name="Page-1" id="3IiMkR9o3swnpy-J64Nr">
    <mxGraphModel dx="1728" dy="1003" grid="1" gridSize="10" guides="1" tooltips="1" connect="1" arrows="1" fold="1" page="1" pageScale="1" pageWidth="850" pageHeight="1100" math="0" shadow="0">
      <root>
        <mxCell id="0" />
        <mxCell id="1" parent="0" />
        <mxCell id="nigeD85z_BY75h_-a5n7-2" value="" style="rounded=0;whiteSpace=wrap;html=1;" vertex="1" parent="1">
          <mxGeometry x="125" y="55" width="515" height="990" as="geometry" />
        </mxCell>
        <mxCell id="nigeD85z_BY75h_-a5n7-7" value="User" style="shape=umlActor;verticalLabelPosition=bottom;verticalAlign=top;html=1;outlineConnect=0;" vertex="1" parent="1">
          <mxGeometry x="40" y="160" width="50" height="120" as="geometry" />
        </mxCell>
        <mxCell id="nigeD85z_BY75h_-a5n7-8" value="Log Incident" style="ellipse;whiteSpace=wrap;html=1;" vertex="1" parent="1">
          <mxGeometry x="190" y="210" width="120" height="80" as="geometry" />
        </mxCell>
        <mxCell id="nigeD85z_BY75h_-a5n7-9" value="Update Incident" style="ellipse;whiteSpace=wrap;html=1;" vertex="1" parent="1">
          <mxGeometry x="190" y="320" width="120" height="80" as="geometry" />
        </mxCell>
        <mxCell id="nigeD85z_BY75h_-a5n7-10" value="Search Incident" style="ellipse;whiteSpace=wrap;html=1;" vertex="1" parent="1">
          <mxGeometry x="190" y="414" width="120" height="80" as="geometry" />
        </mxCell>
        <mxCell id="nigeD85z_BY75h_-a5n7-11" value="View Incidents" style="ellipse;whiteSpace=wrap;html=1;" vertex="1" parent="1">
          <mxGeometry x="190" y="524" width="120" height="80" as="geometry" />
        </mxCell>
        <mxCell id="nigeD85z_BY75h_-a5n7-12" value="System/Database" style="shape=umlActor;verticalLabelPosition=bottom;verticalAlign=top;html=1;outlineConnect=0;" vertex="1" parent="1">
          <mxGeometry x="770" y="180" width="50" height="120" as="geometry" />
        </mxCell>
        <mxCell id="nigeD85z_BY75h_-a5n7-13" value="Log In" style="ellipse;whiteSpace=wrap;html=1;" vertex="1" parent="1">
          <mxGeometry x="190" y="110" width="120" height="80" as="geometry" />
        </mxCell>
        <mxCell id="nigeD85z_BY75h_-a5n7-16" value="" style="endArrow=classic;html=1;rounded=0;entryX=0;entryY=0.5;entryDx=0;entryDy=0;" edge="1" parent="1" target="nigeD85z_BY75h_-a5n7-8">
          <mxGeometry width="50" height="50" relative="1" as="geometry">
            <mxPoint x="90" y="210" as="sourcePoint" />
            <mxPoint x="250" y="290" as="targetPoint" />
          </mxGeometry>
        </mxCell>
        <mxCell id="nigeD85z_BY75h_-a5n7-17" value="" style="endArrow=classic;html=1;rounded=0;entryX=0;entryY=0.5;entryDx=0;entryDy=0;" edge="1" parent="1">
          <mxGeometry width="50" height="50" relative="1" as="geometry">
            <mxPoint x="90" y="210" as="sourcePoint" />
            <mxPoint x="200" y="330" as="targetPoint" />
          </mxGeometry>
        </mxCell>
        <mxCell id="nigeD85z_BY75h_-a5n7-18" value="" style="endArrow=classic;html=1;rounded=0;entryX=0;entryY=0.5;entryDx=0;entryDy=0;" edge="1" parent="1">
          <mxGeometry width="50" height="50" relative="1" as="geometry">
            <mxPoint x="90" y="210" as="sourcePoint" />
            <mxPoint x="190" y="440" as="targetPoint" />
          </mxGeometry>
        </mxCell>
        <mxCell id="nigeD85z_BY75h_-a5n7-21" value="" style="endArrow=classic;html=1;rounded=0;entryX=0;entryY=0.5;entryDx=0;entryDy=0;" edge="1" parent="1">
          <mxGeometry width="50" height="50" relative="1" as="geometry">
            <mxPoint x="90" y="210" as="sourcePoint" />
            <mxPoint x="190" y="544" as="targetPoint" />
          </mxGeometry>
        </mxCell>
        <mxCell id="nigeD85z_BY75h_-a5n7-23" value="" style="endArrow=classic;html=1;rounded=0;entryX=1;entryY=0.5;entryDx=0;entryDy=0;" edge="1" parent="1" source="nigeD85z_BY75h_-a5n7-12" target="nigeD85z_BY75h_-a5n7-8">
          <mxGeometry width="50" height="50" relative="1" as="geometry">
            <mxPoint x="410" y="280" as="sourcePoint" />
            <mxPoint x="460" y="230" as="targetPoint" />
          </mxGeometry>
        </mxCell>
        <mxCell id="nigeD85z_BY75h_-a5n7-26" value="" style="endArrow=classic;html=1;rounded=0;entryX=1;entryY=0.5;entryDx=0;entryDy=0;" edge="1" parent="1">
          <mxGeometry width="50" height="50" relative="1" as="geometry">
            <mxPoint x="770" y="240" as="sourcePoint" />
            <mxPoint x="310" y="358.74" as="targetPoint" />
            <Array as="points">
              <mxPoint x="450" y="350" />
            </Array>
          </mxGeometry>
        </mxCell>
        <mxCell id="nigeD85z_BY75h_-a5n7-27" value="" style="endArrow=classic;html=1;rounded=0;entryX=0.801;entryY=0.1;entryDx=0;entryDy=0;entryPerimeter=0;" edge="1" parent="1" target="nigeD85z_BY75h_-a5n7-10">
          <mxGeometry width="50" height="50" relative="1" as="geometry">
            <mxPoint x="770" y="240" as="sourcePoint" />
            <mxPoint x="320" y="454" as="targetPoint" />
          </mxGeometry>
        </mxCell>
        <mxCell id="nigeD85z_BY75h_-a5n7-29" value="" style="endArrow=classic;html=1;rounded=0;entryX=1;entryY=0.5;entryDx=0;entryDy=0;" edge="1" parent="1" target="nigeD85z_BY75h_-a5n7-11">
          <mxGeometry width="50" height="50" relative="1" as="geometry">
            <mxPoint x="760" y="240" as="sourcePoint" />
            <mxPoint x="310" y="560.87" as="targetPoint" />
            <Array as="points">
              <mxPoint x="570" y="490" />
            </Array>
          </mxGeometry>
        </mxCell>
        <mxCell id="nigeD85z_BY75h_-a5n7-30" value="Verify Password" style="ellipse;whiteSpace=wrap;html=1;" vertex="1" parent="1">
          <mxGeometry x="470" y="69.99999999999989" width="120" height="80" as="geometry" />
        </mxCell>
        <mxCell id="nigeD85z_BY75h_-a5n7-31" value="Display login error" style="ellipse;whiteSpace=wrap;html=1;" vertex="1" parent="1">
          <mxGeometry x="470" y="159.9999999999999" width="120" height="80" as="geometry" />
        </mxCell>
        <mxCell id="nigeD85z_BY75h_-a5n7-33" value="&amp;lt;&amp;lt;include&amp;gt;&amp;gt;" style="text;html=1;strokeColor=none;fillColor=none;align=center;verticalAlign=middle;whiteSpace=wrap;rounded=0;rotation=-15;" vertex="1" parent="1">
          <mxGeometry x="350" y="110" width="60" height="30" as="geometry" />
        </mxCell>
        <mxCell id="nigeD85z_BY75h_-a5n7-34" value="" style="html=1;labelBackgroundColor=#ffffff;startArrow=none;startFill=0;startSize=6;endArrow=classic;endFill=1;endSize=6;jettySize=auto;orthogonalLoop=1;strokeWidth=1;dashed=1;fontSize=14;rounded=0;exitX=0;exitY=0.5;exitDx=0;exitDy=0;entryX=1.031;entryY=0.598;entryDx=0;entryDy=0;entryPerimeter=0;" edge="1" parent="1" source="nigeD85z_BY75h_-a5n7-31" target="nigeD85z_BY75h_-a5n7-13">
          <mxGeometry width="60" height="60" relative="1" as="geometry">
            <mxPoint x="430" y="280" as="sourcePoint" />
            <mxPoint x="490" y="220" as="targetPoint" />
          </mxGeometry>
        </mxCell>
        <mxCell id="nigeD85z_BY75h_-a5n7-35" value="&amp;lt;&amp;lt;extend&amp;gt;&amp;gt;" style="text;html=1;strokeColor=none;fillColor=none;align=center;verticalAlign=middle;whiteSpace=wrap;rounded=0;rotation=15;" vertex="1" parent="1">
          <mxGeometry x="380" y="150" width="60" height="30" as="geometry" />
        </mxCell>
        <mxCell id="nigeD85z_BY75h_-a5n7-36" value="" style="html=1;labelBackgroundColor=#ffffff;startArrow=none;startFill=0;startSize=6;endArrow=classic;endFill=1;endSize=6;jettySize=auto;orthogonalLoop=1;strokeWidth=1;dashed=1;fontSize=14;rounded=0;exitX=1;exitY=0.5;exitDx=0;exitDy=0;" edge="1" parent="1" source="nigeD85z_BY75h_-a5n7-13">
          <mxGeometry width="60" height="60" relative="1" as="geometry">
            <mxPoint x="410" y="170" as="sourcePoint" />
            <mxPoint x="470" y="110" as="targetPoint" />
          </mxGeometry>
        </mxCell>
        <mxCell id="nigeD85z_BY75h_-a5n7-37" value="" style="endArrow=classic;html=1;rounded=0;entryX=0.01;entryY=0.608;entryDx=0;entryDy=0;entryPerimeter=0;" edge="1" parent="1" target="nigeD85z_BY75h_-a5n7-13">
          <mxGeometry width="50" height="50" relative="1" as="geometry">
            <mxPoint x="90" y="210" as="sourcePoint" />
            <mxPoint x="200" y="215" as="targetPoint" />
          </mxGeometry>
        </mxCell>
        <mxCell id="nigeD85z_BY75h_-a5n7-38" value="Filter incidents by type, user affected, etc" style="ellipse;whiteSpace=wrap;html=1;" vertex="1" parent="1">
          <mxGeometry x="410" y="400" width="120" height="80" as="geometry" />
        </mxCell>
        <mxCell id="nigeD85z_BY75h_-a5n7-40" value="" style="html=1;labelBackgroundColor=#ffffff;startArrow=none;startFill=0;startSize=6;endArrow=classic;endFill=1;endSize=6;jettySize=auto;orthogonalLoop=1;strokeWidth=1;dashed=1;fontSize=14;rounded=0;exitX=0.308;exitY=0.409;exitDx=0;exitDy=0;exitPerimeter=0;" edge="1" parent="1" source="nigeD85z_BY75h_-a5n7-2">
          <mxGeometry width="60" height="60" relative="1" as="geometry">
            <mxPoint x="485" y="510" as="sourcePoint" />
            <mxPoint x="410" y="450" as="targetPoint" />
          </mxGeometry>
        </mxCell>
        <mxCell id="nigeD85z_BY75h_-a5n7-41" value="&amp;lt;&amp;lt;include&amp;gt;&amp;gt;" style="text;html=1;strokeColor=none;fillColor=none;align=center;verticalAlign=middle;whiteSpace=wrap;rounded=0;rotation=-5;" vertex="1" parent="1">
          <mxGeometry x="330" y="420" width="60" height="30" as="geometry" />
        </mxCell>
        <mxCell id="nigeD85z_BY75h_-a5n7-45" value="Generate Sigma rule" style="ellipse;whiteSpace=wrap;html=1;" vertex="1" parent="1">
          <mxGeometry x="390" y="260" width="120" height="80" as="geometry" />
        </mxCell>
        <mxCell id="nigeD85z_BY75h_-a5n7-46" value="&amp;lt;&amp;lt;extend&amp;gt;&amp;gt;" style="text;html=1;strokeColor=none;fillColor=none;align=center;verticalAlign=middle;whiteSpace=wrap;rounded=0;rotation=15;" vertex="1" parent="1">
          <mxGeometry x="320" y="270" width="60" height="30" as="geometry" />
        </mxCell>
        <mxCell id="nigeD85z_BY75h_-a5n7-47" value="" style="html=1;labelBackgroundColor=#ffffff;startArrow=none;startFill=0;startSize=6;endArrow=classic;endFill=1;endSize=6;jettySize=auto;orthogonalLoop=1;strokeWidth=1;dashed=1;fontSize=14;rounded=0;exitX=0.003;exitY=0.702;exitDx=0;exitDy=0;entryX=1;entryY=1;entryDx=0;entryDy=0;exitPerimeter=0;" edge="1" parent="1" source="nigeD85z_BY75h_-a5n7-45" target="nigeD85z_BY75h_-a5n7-8">
          <mxGeometry width="60" height="60" relative="1" as="geometry">
            <mxPoint x="366.28" y="340" as="sourcePoint" />
            <mxPoint x="210.28" y="298" as="targetPoint" />
          </mxGeometry>
        </mxCell>
        <mxCell id="nigeD85z_BY75h_-a5n7-49" value="Incident Response Tool" style="text;html=1;strokeColor=none;fillColor=none;align=center;verticalAlign=middle;whiteSpace=wrap;rounded=0;" vertex="1" parent="1">
          <mxGeometry x="352.5" y="20" width="107.5" height="30" as="geometry" />
        </mxCell>
      </root>
    </mxGraphModel>
  </diagram>
</mxfile>
